<svg xmlns="http://www.w3.org/2000/svg" xmlns:xlink="http://www.w3.org/1999/xlink" xmlns:svgjs="http://svgjs.com/svgjs" width="512" height="512" x="0" y="0" viewBox="0 0 512 512" style="enable-background:new 0 0 512 512" xml:space="preserve" class=""><g><path fill="#ddebfd" d="M136.153 98.765v407.669a5.566 5.566 0 0 0 5.566 5.566h326.194a5.566 5.566 0 0 0 5.566-5.566V98.765a5.566 5.566 0 0 0-5.566-5.566H141.719a5.566 5.566 0 0 0-5.566 5.566z" data-original="#ddebfd" class=""></path><path fill="#bed9fd" d="M467.913 93.199h-25.61a5.566 5.566 0 0 1 5.566 5.566v407.669a5.566 5.566 0 0 1-5.566 5.566h25.61a5.566 5.566 0 0 0 5.566-5.566V98.765a5.566 5.566 0 0 0-5.566-5.566z" data-original="#bed9fd" class=""></path><path fill="#407194" d="M364.802 0c-11.728 0-21.236 9.508-21.236 21.236v21.236l42.471 16.709V21.236C386.038 9.508 376.53 0 364.802 0z" data-original="#407194" class=""></path><path fill="#f5b326" d="M397.58 146.59c0 5.64-.12 11.47-.35 17.42-1.12 28.89-4.95 60.54-11.23 86.93l-21.198 17.588L343.6 250.94c-6.28-26.39-10.11-58.04-11.23-86.93-.23-5.95-.34-11.78-.34-17.42l32.77-10z" data-original="#ffa95f" class="" opacity="1"></path><path fill="#f5b326" d="M397.23 164.01c-1.12 28.89-4.95 60.54-11.23 86.93l-10.776 7-10.994-7c6.15-31.81 9.39-71.29 9.39-104.35z" data-original="#ff8b5a" class="" opacity="1"></path><path fill="#407194" d="M343.607 250.937c4.455 18.702 10.143 34.765 16.987 45.316 1.981 3.053 6.437 3.053 8.417 0 6.844-10.551 12.532-26.614 16.987-45.316z" data-original="#407194" class=""></path><path fill="#365f7e" d="M369.011 296.253c6.844-10.551 12.532-26.614 16.987-45.316h-21.774c-2.575 13.328-5.656 25.323-9.225 34.927l.009.033c1.767 3.854 3.627 7.337 5.585 10.356 1.981 3.053 6.437 3.053 8.418 0z" data-original="#365f7e" class=""></path><path fill="#407194" d="M428.08 132.275a7.726 7.726 0 0 1-7.726-7.726V76.243c0-3.681-2.99-6.676-6.665-6.676h-18.173a7.726 7.726 0 1 1 0-15.452h18.173c12.196 0 22.118 9.927 22.118 22.128v48.305a7.728 7.728 0 0 1-7.727 7.727z" data-original="#407194" class=""></path><path fill="#f47779" d="M393.713 42.472h-57.822a3.864 3.864 0 0 0-3.865 3.865s.123 111.729.354 117.672h64.844c.231-5.943.354-11.776.354-17.415V46.337a3.864 3.864 0 0 0-3.865-3.865z" data-original="#df646e" class="" opacity="1"></path><path fill="#cd5668" d="M373.621 46.337s-.097 111.728-.284 117.672h23.888c.231-5.943.354-11.776.354-17.415V46.337a3.864 3.864 0 0 0-3.865-3.865h-23.226c1.73 0 3.133 1.73 3.133 3.865z" data-original="#cd5668" class=""></path><path fill="#4e6ffd" d="M69.545 449.952c-17.134 0-31.024 13.89-31.024 31.024S52.411 512 69.545 512h35.586l20.604-31.024-20.604-31.024z" data-original="#5392f9" class="" opacity="1"></path><path fill="#f5b326" d="M105.131 512h35.586c17.134 0 31.024-13.89 31.024-31.024s-13.89-31.024-31.024-31.024h-35.586z" data-original="#ffa95f" class="" opacity="1"></path><path fill="#4e6ffd" d="M101.544 307.008c-12.116-12.116-31.759-12.116-43.874 0s-12.116 31.759 0 43.874l25.163 25.163 37.345-4.812 6.529-39.062z" data-original="#5392f9" class="" opacity="1"></path><path fill="#f5b326" d="m82.833 376.046 25.163 25.163c12.116 12.116 31.759 12.115 43.875 0 12.116-12.116 12.116-31.759 0-43.874l-25.163-25.163z" data-original="#ffa95f" class="" opacity="1"></path><path fill="#4e6ffd" d="m268.91 219.637 12.152-12.152a7.727 7.727 0 0 0-10.927-10.927l-12.152 12.152-15.238-15.237c14.475-1.182 25.895-13.331 25.895-28.105 0-15.553-12.654-28.207-28.208-28.207h-29.363a7.726 7.726 0 0 0-7.726 7.726v76.407a7.726 7.726 0 1 0 15.452 0v-27.719h2.199l26.062 26.062-12.153 12.153c-3.018 3.017-3.018 7.909 0 10.927s7.909 3.017 10.927 0l12.153-12.153 11.015 11.015a7.726 7.726 0 1 0 10.927-10.927zm-15.722-54.269c0 7.033-5.722 12.755-12.755 12.755h-21.637v-25.509h21.637c7.033 0 12.755 5.722 12.755 12.754z" data-original="#5392f9" class="" opacity="1"></path><g fill="#6cbff8"><path d="M272.125 301.971h-61.056a7.726 7.726 0 1 1 0-15.452h61.056a7.726 7.726 0 1 1 0 15.452zM398.069 376.596H211.561a7.726 7.726 0 1 1 0-15.452h186.508a7.726 7.726 0 1 1 0 15.452zM398.069 451.222H211.561a7.726 7.726 0 1 1 0-15.452h186.508a7.726 7.726 0 1 1 0 15.452z" fill="#6cbff8" data-original="#6cbff8" class=""></path></g></g></svg>